<svg width="24" height="24" viewBox="0 0 24 24" fill="none" xmlns="http://www.w3.org/2000/svg">
<g id="Group">
<g id="Group_2">
<path id="Vector" d="M23.0384 7.34726C17.444 1.75284 9.28399 -0.421377 1.64831 1.64831C-0.421377 9.28483 1.75284 17.444 7.34726 23.0384L7.39158 23.0827C15.0381 21.0105 21.0105 15.0373 23.0827 7.39158L23.0384 7.34726Z" fill="#8D98FF"/>
<g id="Group_3">
<path id="Vector_2" d="M23.0829 7.39158L16.8914 9.06908C13.0848 10.101 9.01736 9.01723 6.22851 6.22838L1.64844 1.64831C9.28495 -0.421377 17.445 1.75284 23.0394 7.34726L23.0829 7.39075V7.39158Z" fill="#7A8AFF"/>
<path id="Vector_3" d="M23.0818 7.39146C21.0096 15.038 15.0363 21.0104 7.39062 23.0826L9.08484 16.8309C10.1076 13.0561 13.0561 10.1084 16.8309 9.08484L23.0826 7.39062L23.0818 7.39146Z" fill="#607FFF"/>
<path id="Vector_4" d="M9.06908 16.8911L7.39158 23.0826L7.34726 23.0383C1.75284 17.4439 -0.421377 9.28387 1.64831 1.64819L6.22838 6.22826C9.01723 9.01711 10.101 13.0846 9.06908 16.8911Z" fill="#A6A8FF"/>
</g>
</g>
</g>
</svg>
